<svg width="39" height="39" viewBox="0 0 39 39" fill="none" xmlns="http://www.w3.org/2000/svg">
<path d="M10.1877 2H28.4127V0H10.1877V2ZM28.4127 2C32.9229 2 36.5252 5.60228 36.5252 10.1125H38.5252C38.5252 4.49772 34.0275 0 28.4127 0V2ZM36.5252 10.1125V28.3375H38.5252V10.1125H36.5252ZM36.5252 28.3375C36.5252 32.8477 32.9229 36.45 28.4127 36.45V38.45C34.0275 38.45 38.5252 33.9523 38.5252 28.3375H36.5252ZM28.4127 36.45H10.1877V38.45H28.4127V36.45ZM10.1877 36.45C5.67748 36.45 2.0752 32.8477 2.0752 28.3375H0.0751953C0.0751953 33.9523 4.57291 38.45 10.1877 38.45V36.45ZM2.0752 28.3375V10.1125H0.0751953V28.3375H2.0752ZM2.0752 10.1125C2.0752 5.60228 5.67748 2 10.1877 2V0C4.57291 0 0.0751953 4.49772 0.0751953 10.1125H2.0752ZM13.0096 19.2007C13.0096 15.703 15.8019 12.9107 19.2996 12.9107V10.9107C14.6973 10.9107 11.0096 14.5984 11.0096 19.2007H13.0096ZM19.2996 12.9107C22.7973 12.9107 25.5896 15.703 25.5896 19.2007H27.5896C27.5896 14.5984 23.9019 10.9107 19.2996 10.9107V12.9107ZM25.5896 19.2007C25.5896 22.6984 22.7973 25.4907 19.2996 25.4907V27.4907C23.9019 27.4907 27.5896 23.803 27.5896 19.2007H25.5896ZM19.2996 25.4907C15.8019 25.4907 13.0096 22.6984 13.0096 19.2007H11.0096C11.0096 23.803 14.6973 27.4907 19.2996 27.4907V25.4907Z" fill="#696969"/>
<path d="M29.2229 8.509C28.8179 8.509 28.6154 8.914 28.6154 9.1165C28.6154 9.5215 29.0204 9.724 29.2229 9.724C29.6279 9.724 29.8304 9.319 29.8304 9.1165C30.0329 8.914 29.6279 8.509 29.2229 8.509" stroke="#696969" stroke-width="2" stroke-linecap="round" stroke-linejoin="round"/>
</svg>
