<svg width="39" height="39" viewBox="0 0 39 39" fill="none" xmlns="http://www.w3.org/2000/svg">
<path fill-rule="evenodd" clip-rule="evenodd" d="M10.2878 1H28.5128C33.5753 1 37.6253 5.05 37.6253 10.1125V28.3375C37.6253 33.4 33.5753 37.45 28.5128 37.45H10.2878C5.22529 37.45 1.17529 33.4 1.17529 28.3375V10.1125C1.17529 5.05 5.22529 1 10.2878 1Z" stroke="#696969" stroke-width="2" stroke-linecap="round" stroke-linejoin="round"/>
<path d="M17.4373 17.9787H18.1779V19.3617H17.4373C14.7034 19.3617 12.4812 21.4367 12.4812 23.9894C12.4812 26.5421 14.7034 28.617 17.4373 28.617C20.1713 28.617 22.3935 26.5421 22.3935 23.9894V10H23.8747V10.6915C23.8747 13.2442 26.0969 15.3191 28.8309 15.3191H29.5714V16.7021H28.8309C27.383 16.7021 26.0496 16.248 24.9697 15.4882L23.8747 14.7178V23.9894C23.8747 27.3032 20.9864 30 17.4373 30C13.8883 30 11 27.3032 11 23.9894C11 20.6756 13.8883 17.9787 17.4373 17.9787Z" fill="#696969" stroke="#696969" stroke-width="0.4"/>
</svg>
