<svg width="27" height="27" viewBox="0 0 27 27" fill="none" xmlns="http://www.w3.org/2000/svg">
<path d="M5.41176 1.81275H21.5882C23.5759 1.81275 25.1873 3.42408 25.1873 5.41176V21.5882C25.1873 23.5759 23.5759 25.1873 21.5882 25.1873H5.41176C3.42408 25.1873 1.81275 23.5759 1.81275 21.5882V5.41176C1.81275 3.42408 3.42408 1.81275 5.41176 1.81275ZM5.41176 0.8C2.86476 0.8 0.8 2.86476 0.8 5.41176V21.5882C0.8 24.1352 2.86476 26.2 5.41176 26.2H21.5882C24.1352 26.2 26.2 24.1352 26.2 21.5882V5.41176C26.2 2.86476 24.1352 0.8 21.5882 0.8H5.41176Z" fill="#696969" stroke="#696969" stroke-width="0.4"/>
<path d="M16.625 6.20832V5.16666H14.5417V16.625C14.5417 18.3485 13.1402 19.75 11.4167 19.75C9.6932 19.75 8.29168 18.3485 8.29168 16.625C8.29168 14.9015 9.6932 13.5 11.4167 13.5H12.4583V11.4167H11.4167C8.54472 11.4167 6.20834 13.753 6.20834 16.625C6.20834 19.4969 8.54472 21.8333 11.4167 21.8333C14.2886 21.8333 16.625 19.4969 16.625 16.625V10.3651C17.4968 11.022 18.5766 11.4167 19.75 11.4167H20.7917V9.33332H19.75C18.0265 9.33332 16.625 7.9318 16.625 6.20832Z" fill="#696969"/>
</svg>
