<svg width="39" height="39" viewBox="0 0 39 39" fill="none" xmlns="http://www.w3.org/2000/svg">
<path d="M13.017 36.2513L17.2695 17.2163" stroke="#696969" stroke-width="2" stroke-linecap="round" stroke-linejoin="round"/>
<path fill-rule="evenodd" clip-rule="evenodd" d="M19.7001 37.45C29.7655 37.45 37.9251 29.2904 37.9251 19.225C37.9251 9.15961 29.7655 1 19.7001 1C9.63471 1 1.4751 9.15961 1.4751 19.225C1.4751 29.2904 9.63471 37.45 19.7001 37.45Z" stroke="#696969" stroke-width="2" stroke-linecap="round" stroke-linejoin="round"/>
<path d="M19.7002 9.0835C25.3702 9.0835 29.8252 13.1335 29.8252 18.196" stroke="#696969" stroke-width="2" stroke-linecap="round" stroke-linejoin="round"/>
<path d="M9.57518 18.196C9.57518 13.1335 14.0302 9.0835 19.7002 9.0835" stroke="#696969" stroke-width="2" stroke-linecap="round" stroke-linejoin="round"/>
<path d="M29.8249 18.1958C29.8249 23.2583 25.7749 27.3083 20.7124 27.3083" stroke="#696969" stroke-width="2" stroke-linecap="round" stroke-linejoin="round"/>
<path d="M20.7121 27.3239C18.6871 27.3239 16.8646 26.7164 15.4471 25.5014" stroke="#696969" stroke-width="2" stroke-linecap="round" stroke-linejoin="round"/>
<path d="M9.57432 18.1958C9.57432 19.2083 9.77682 20.2208 10.1818 21.2333" stroke="#696969" stroke-width="2" stroke-linecap="round" stroke-linejoin="round"/>
</svg>
