<svg width="25" height="25" viewBox="0 0 25 25" fill="none" xmlns="http://www.w3.org/2000/svg">
<path fill-rule="evenodd" clip-rule="evenodd" d="M20.5882 0.612745H4.41176C2.31362 0.612745 0.612745 2.31362 0.612745 4.41176V20.5882C0.612745 22.6864 2.31362 24.3873 4.41176 24.3873H20.5882C22.6864 24.3873 24.3873 22.6864 24.3873 20.5882V4.41176C24.3873 2.31362 22.6864 0.612745 20.5882 0.612745ZM4.41176 0C1.97521 0 0 1.97521 0 4.41176V20.5882C0 23.0248 1.97521 25 4.41176 25H20.5882C23.0248 25 25 23.0248 25 20.5882V4.41176C25 1.97521 23.0248 0 20.5882 0H4.41176Z" fill="#696969"/>
<path d="M10.5061 11.5851H11.0245V12.5532H10.5061C8.59239 12.5532 7.03681 14.0057 7.03681 15.7926C7.03681 17.5794 8.59239 19.0319 10.5061 19.0319C12.4199 19.0319 13.9755 17.5794 13.9755 15.7926V6H15.0123V6.48404C15.0123 8.27094 16.5678 9.7234 18.4816 9.7234H19V10.6915H18.4816C17.4681 10.6915 16.5347 10.3736 15.7788 9.84174L15.0123 9.30246V15.7926C15.0123 18.1122 12.9905 20 10.5061 20C8.0218 20 6 18.1122 6 15.7926C6 13.4729 8.0218 11.5851 10.5061 11.5851Z" fill="#696969"/>
</svg>
