<svg width="39" height="39" viewBox="0 0 39 39" fill="none" xmlns="http://www.w3.org/2000/svg">
<path fill-rule="evenodd" clip-rule="evenodd" d="M11.4025 17.4027V28.3377Z" fill="#696969"/>
<path fill-rule="evenodd" clip-rule="evenodd" d="M11.4025 10.72C11.2 10.72 10.9975 10.9225 10.9975 11.125C10.9975 11.3275 11.2 11.53 11.4025 11.53C11.605 11.53 11.8075 11.3275 11.8075 11.125C11.8075 10.9225 11.605 10.72 11.4025 10.72Z" fill="#696969"/>
<path d="M11.4025 10.72C11.2 10.72 10.9975 10.9225 10.9975 11.125C10.9975 11.3275 11.2 11.53 11.4025 11.53C11.605 11.53 11.8075 11.3275 11.8075 11.125C11.8075 10.9225 11.605 10.72 11.4025 10.72Z" fill="#696969"/>
<path fill-rule="evenodd" clip-rule="evenodd" d="M11.4025 10.72C11.2 10.72 10.9975 10.9225 10.9975 11.125C10.9975 11.3275 11.2 11.53 11.4025 11.53C11.605 11.53 11.8075 11.3275 11.8075 11.125C11.8075 10.9225 11.605 10.72 11.4025 10.72Z" fill="#696969"/>
<path d="M11.4025 17.4027V28.3377M18.6925 28.3375V22.0599C18.6925 19.63 20.7175 17.6049 23.1475 17.6049C25.5775 17.6049 27.6025 19.63 27.6025 22.0599V28.3375M10.1875 1H28.4125C33.475 1 37.525 5.05 37.525 10.1125V28.3375C37.525 33.4 33.475 37.45 28.4125 37.45H10.1875C5.12501 37.45 1.07501 33.4 1.07501 28.3375V10.1125C1.07501 5.05 5.12501 1 10.1875 1ZM11.4025 10.72C11.2 10.72 10.9975 10.9225 10.9975 11.125C10.9975 11.3275 11.2 11.53 11.4025 11.53C11.605 11.53 11.8075 11.3275 11.8075 11.125C11.8075 10.9225 11.605 10.72 11.4025 10.72Z" stroke="#696969" stroke-width="2" stroke-linecap="round" stroke-linejoin="round"/>
<path d="M11.2229 10.509C10.8179 10.509 10.6154 10.914 10.6154 11.1165C10.6154 11.5215 11.0204 11.724 11.2229 11.724C11.6279 11.724 11.8304 11.319 11.8304 11.1165C12.0329 10.914 11.6279 10.509 11.2229 10.509" stroke="#696969" stroke-width="2" stroke-linecap="round" stroke-linejoin="round"/>
</svg>
