<svg width="43" height="36" viewBox="0 0 43 36" fill="none" xmlns="http://www.w3.org/2000/svg">
<path fill-rule="evenodd" clip-rule="evenodd" d="M40.7398 6.265C40.3348 4.24 38.9173 2.62 37.0948 2.0125C33.8548 1 21.2998 1 21.2998 1C21.2998 1 8.54232 1 5.50482 2.0125C3.68232 2.62 2.46732 4.24 1.85982 6.265C1.04982 9.91 1.04982 17.605 1.04982 17.605C1.04982 17.605 1.04982 25.3 1.85982 28.945C2.26482 30.97 3.68232 32.59 5.50482 33.1975C8.74482 34.21 21.2998 34.21 21.2998 34.21C21.2998 34.21 34.0573 34.21 37.0948 33.1975C38.9173 32.59 40.1323 30.97 40.7398 28.945C41.5498 25.3 41.5498 17.605 41.5498 17.605C41.5498 17.605 41.5498 9.91 40.7398 6.265Z" stroke="#696969" stroke-width="2" stroke-linecap="round" stroke-linejoin="round"/>
<path fill-rule="evenodd" clip-rule="evenodd" d="M17.25 23.6917L27.78 17.6167L17.25 11.5417V23.6917Z" stroke="#696969" stroke-width="2" stroke-linecap="round" stroke-linejoin="round"/>
</svg>
