<svg width="39" height="34" viewBox="0 0 39 34" fill="none" xmlns="http://www.w3.org/2000/svg">
<path d="M35.0804 10.3202C35.0804 9.76787 34.6327 9.32015 34.0804 9.32015C33.5281 9.32015 33.0804 9.76787 33.0804 10.3202H35.0804ZM2.06975 24.2927C1.73426 23.854 1.10665 23.7703 0.667941 24.1058C0.229229 24.4413 0.145547 25.0689 0.481033 25.5076L2.06975 24.2927ZM0.959484 23.7438C0.43554 23.9185 0.15238 24.4848 0.327028 25.0087C0.501676 25.5327 1.068 25.8158 1.59194 25.6412L0.959484 23.7438ZM6.74321 22.87L7.05944 23.8187C7.38823 23.7091 7.63683 23.4371 7.71646 23.0998C7.79609 22.7624 7.69539 22.408 7.45032 22.1629L6.74321 22.87ZM4.92071 1L5.80654 0.535993C5.64441 0.226469 5.33248 0.0240187 4.98376 0.00198939C4.63504 -0.02004 4.30011 0.141547 4.10031 0.428207L4.92071 1ZM15.8557 10.1125L15.6341 11.0876C15.9241 11.1535 16.2284 11.0869 16.4644 10.9059C16.7004 10.7248 16.8435 10.4481 16.855 10.1509L15.8557 10.1125ZM32.2582 4.645L31.4146 5.18188C31.5981 5.47032 31.9163 5.645 32.2582 5.645V4.645ZM37.7257 4.645L38.5578 5.1997C38.7623 4.89284 38.7814 4.4983 38.6074 4.17314C38.4334 3.84798 38.0945 3.645 37.7257 3.645V4.645ZM33.2487 9.5578C32.9423 10.0173 33.0665 10.6382 33.526 10.9445C33.9855 11.2509 34.6064 11.1267 34.9128 10.6672L33.2487 9.5578ZM33.0804 10.3202C33.0804 16.5149 31.3113 21.7277 28.0909 25.3776C24.8841 29.0119 20.1574 31.1902 14.0329 31.1902V33.1902C20.6659 33.1902 25.9629 30.8121 29.5905 26.7008C33.2044 22.6051 35.0804 16.8829 35.0804 10.3202H33.0804ZM14.0329 31.1902C10.5843 31.1902 8.25877 30.2866 6.48882 29.0224C4.6827 27.7323 3.40325 26.0365 2.06975 24.2927L0.481033 25.5076C1.78003 27.2063 3.23433 29.1555 5.32634 30.6498C7.45451 32.17 10.1915 33.1902 14.0329 33.1902V31.1902ZM1.59194 25.6412L7.05944 23.8187L6.42698 21.9213L0.959484 23.7438L1.59194 25.6412ZM7.45032 22.1629C1.73808 16.4507 1.34398 7.88072 5.74111 1.57179L4.10031 0.428207C-0.817554 7.48428 -0.401657 17.1393 6.0361 23.5771L7.45032 22.1629ZM4.03488 1.46401C6.36195 5.90659 10.8251 9.99469 15.6341 11.0876L16.0773 9.13737C11.9763 8.20531 7.93447 4.5984 5.80654 0.535993L4.03488 1.46401ZM16.855 10.1509C16.9483 7.72566 17.7833 5.69448 19.1558 4.27767C20.5209 2.86859 22.4814 2 24.9682 2V0C21.9876 0 19.493 1.05516 17.7193 2.88608C15.9531 4.70927 14.9657 7.23434 14.8565 10.0741L16.855 10.1509ZM24.9682 2C26.6594 2 27.96 2.32808 28.9789 2.87006C29.9948 3.41045 30.7847 4.19203 31.4146 5.18188L33.1019 4.10812C32.3143 2.87047 31.2816 1.82955 29.9181 1.10431C28.5577 0.38067 26.922 0 24.9682 0V2ZM32.2582 5.645H37.7257V3.645H32.2582V5.645ZM36.8937 4.0903L33.2487 9.5578L34.9128 10.6672L38.5578 5.1997L36.8937 4.0903Z" fill="#696969"/>
</svg>
