<?xml version="1.0" standalone="no"?>
        <!DOCTYPE svg PUBLIC "-//W3C//DTD SVG 1.1//EN" 
        "http://www.w3.org/Graphics/SVG/1.1/DTD/svg11.dtd"> <svg style="color: red" xmlns="http://www.w3.org/2000/svg" width="16" height="16" fill="currentColor" class="bi bi-printer-fill" viewBox="0 0 16 16"> <path d="M5 1a2 2 0 0 0-2 2v1h10V3a2 2 0 0 0-2-2H5zm6 8H5a1 1 0 0 0-1 1v3a1 1 0 0 0 1 1h6a1 1 0 0 0 1-1v-3a1 1 0 0 0-1-1z" fill="red"></path> <path d="M0 7a2 2 0 0 1 2-2h12a2 2 0 0 1 2 2v3a2 2 0 0 1-2 2h-1v-2a2 2 0 0 0-2-2H5a2 2 0 0 0-2 2v2H2a2 2 0 0 1-2-2V7zm2.5 1a.5.5 0 1 0 0-1 .5.5 0 0 0 0 1z" fill="red"></path> </svg> 